<svg xmlns="http://www.w3.org/2000/svg" viewBox="0 0 32 32" fill="none">
  <rect width="32" height="32" rx="8" fill="#2563eb"/>
  <path d="M8 12c0-1.5 1-3 2.5-3.5S13 8 14 9.5c1 1.5 1.5 3.5 2 5.5s1 4 2.5 5 3.5 1 5 0 2.5-3 2-5-1.5-4-3-5.5-3.5-2.5-5.5-2-4 1-5 2.5" stroke="white" stroke-width="2" stroke-linecap="round" stroke-linejoin="round" fill="none"/>
  <circle cx="16" cy="16" r="2" fill="#fbbf24"/>
  <path d="M6 20c2-1 4-1.5 6-1s4 1.5 6 2 4 0.5 6-0.5" stroke="#fbbf24" stroke-width="1.5" stroke-linecap="round" fill="none"/>
</svg>
